TITLE ""
FILE "1Q_t_0378-0387.mp3" MP3
  TRACK 01 AUDIO
    TITLE "1Q_t_0378-0387_01"
    INDEX 01 00:00:00
  TRACK 02 AUDIO
    TITLE "1Q_t_0378-0387_02"
    INDEX 01 00:00:16
  TRACK 03 AUDIO
    TITLE "1Q_t_0378-0387_03"
    INDEX 01 00:01:53
  TRACK 04 AUDIO
    TITLE "1Q_t_0378-0387_04"
    INDEX 01 00:01:70
  TRACK 05 AUDIO
    TITLE "1Q_t_0378-0387_05"
    INDEX 01 00:05:27
  TRACK 06 AUDIO
    TITLE "1Q_t_0378-0387_06"
    INDEX 01 00:05:41
  TRACK 07 AUDIO
    TITLE "1Q_t_0378-0387_07"
    INDEX 01 00:09:39
  TRACK 08 AUDIO
    TITLE "1Q_t_0378-0387_08"
    INDEX 01 00:10:19
  TRACK 09 AUDIO
    TITLE "1Q_t_0378-0387_09"
    INDEX 01 00:11:28
  TRACK 10 AUDIO
    TITLE "1Q_t_0378-0387_10"
    INDEX 01 00:11:45
  TRACK 11 AUDIO
    TITLE "1Q_t_0378-0387_11"
    INDEX 01 00:13:11
  TRACK 12 AUDIO
    TITLE "1Q_t_0378-0387_12"
    INDEX 01 00:13:25
  TRACK 13 AUDIO
    TITLE "1Q_t_0378-0387_13"
    INDEX 01 00:20:19
  TRACK 14 AUDIO
    TITLE "1Q_t_0378-0387_14"
    INDEX 01 00:20:74
  TRACK 15 AUDIO
    TITLE "1Q_t_0378-0387_15"
    INDEX 01 00:22:28
  TRACK 16 AUDIO
    TITLE "1Q_t_0378-0387_16"
    INDEX 01 00:22:51
  TRACK 17 AUDIO
    TITLE "1Q_t_0378-0387_17"
    INDEX 01 00:25:34
  TRACK 18 AUDIO
    TITLE "1Q_t_0378-0387_18"
    INDEX 01 00:25:47
  TRACK 19 AUDIO
    TITLE "1Q_t_0378-0387_19"
    INDEX 01 00:32:08
  TRACK 20 AUDIO
    TITLE "1Q_t_0378-0387_20"
    INDEX 01 00:32:73
  TRACK 21 AUDIO
    TITLE "1Q_t_0378-0387_21"
    INDEX 01 00:34:11
  TRACK 22 AUDIO
    TITLE "1Q_t_0378-0387_22"
    INDEX 01 00:34:27
  TRACK 23 AUDIO
    TITLE "1Q_t_0378-0387_23"
    INDEX 01 00:36:61
  TRACK 24 AUDIO
    TITLE "1Q_t_0378-0387_24"
    INDEX 01 00:37:00
  TRACK 25 AUDIO
    TITLE "1Q_t_0378-0387_25"
    INDEX 01 00:43:55
  TRACK 26 AUDIO
    TITLE "1Q_t_0378-0387_26"
    INDEX 01 00:44:33
  TRACK 27 AUDIO
    TITLE "1Q_t_0378-0387_27"
    INDEX 01 00:45:52
  TRACK 28 AUDIO
    TITLE "1Q_t_0378-0387_28"
    INDEX 01 00:45:68
  TRACK 29 AUDIO
    TITLE "1Q_t_0378-0387_29"
    INDEX 01 00:48:43
  TRACK 30 AUDIO
    TITLE "1Q_t_0378-0387_30"
    INDEX 01 00:48:60
  TRACK 31 AUDIO
    TITLE "1Q_t_0378-0387_31"
    INDEX 01 00:54:37
  TRACK 32 AUDIO
    TITLE "1Q_t_0378-0387_32"
    INDEX 01 00:55:15
  TRACK 33 AUDIO
    TITLE "1Q_t_0378-0387_33"
    INDEX 01 00:56:44
  TRACK 34 AUDIO
    TITLE "1Q_t_0378-0387_34"
    INDEX 01 00:56:60
  TRACK 35 AUDIO
    TITLE "1Q_t_0378-0387_35"
    INDEX 01 00:59:72
  TRACK 36 AUDIO
    TITLE "1Q_t_0378-0387_36"
    INDEX 01 01:00:12
  TRACK 37 AUDIO
    TITLE "1Q_t_0378-0387_37"
    INDEX 01 01:06:25
  TRACK 38 AUDIO
    TITLE "1Q_t_0378-0387_38"
    INDEX 01 01:07:03
  TRACK 39 AUDIO
    TITLE "1Q_t_0378-0387_39"
    INDEX 01 01:08:28
  TRACK 40 AUDIO
    TITLE "1Q_t_0378-0387_40"
    INDEX 01 01:08:45
  TRACK 41 AUDIO
    TITLE "1Q_t_0378-0387_41"
    INDEX 01 01:11:18
  TRACK 42 AUDIO
    TITLE "1Q_t_0378-0387_42"
    INDEX 01 01:11:32
  TRACK 43 AUDIO
    TITLE "1Q_t_0378-0387_43"
    INDEX 01 01:17:44
  TRACK 44 AUDIO
    TITLE "1Q_t_0378-0387_44"
    INDEX 01 01:18:24
  TRACK 45 AUDIO
    TITLE "1Q_t_0378-0387_45"
    INDEX 01 01:20:13
  TRACK 46 AUDIO
    TITLE "1Q_t_0378-0387_46"
    INDEX 01 01:20:33
  TRACK 47 AUDIO
    TITLE "1Q_t_0378-0387_47"
    INDEX 01 01:22:20
  TRACK 48 AUDIO
    TITLE "1Q_t_0378-0387_48"
    INDEX 01 01:22:38
  TRACK 49 AUDIO
    TITLE "1Q_t_0378-0387_49"
    INDEX 01 01:29:14
  TRACK 50 AUDIO
    TITLE "1Q_t_0378-0387_50"
    INDEX 01 01:29:65
  TRACK 51 AUDIO
    TITLE "1Q_t_0378-0387_51"
    INDEX 01 01:31:13
  TRACK 52 AUDIO
    TITLE "1Q_t_0378-0387_52"
    INDEX 01 01:31:29
  TRACK 53 AUDIO
    TITLE "1Q_t_0378-0387_53"
    INDEX 01 01:34:09
  TRACK 54 AUDIO
    TITLE "1Q_t_0378-0387_54"
    INDEX 01 01:34:25
  TRACK 55 AUDIO
    TITLE "1Q_t_0378-0387_55"
    INDEX 01 01:40:55
  TRACK 56 AUDIO
    TITLE "1Q_t_0378-0387_56"
    INDEX 01 01:41:33
  TRACK 57 AUDIO
    TITLE "1Q_t_0378-0387_57"
    INDEX 01 01:42:54
  TRACK 58 AUDIO
    TITLE "1Q_t_0378-0387_58"
    INDEX 01 01:42:72
  TRACK 59 AUDIO
    TITLE "1Q_t_0378-0387_59"
    INDEX 01 01:45:39
  TRACK 60 AUDIO
    TITLE "1Q_t_0378-0387_60"
    INDEX 01 01:45:54
  TRACK 61 AUDIO
    TITLE "1Q_t_0378-0387_61"
    INDEX 01 01:52:37
